<?xml version="1.0" encoding="UTF-8"?>
<!-- Generated by Pixelmator Pro 2.4.1 -->
<svg width="108" height="21" viewBox="0 0 108 21" xmlns="http://www.w3.org/2000/svg" xmlns:xlink="http://www.w3.org/1999/xlink">
    <g id="Group">
        <path id="Path" fill="#262626" fill-rule="evenodd" stroke="none" d="M 3 0 L 105 0 C 106.656853 0 108 1.343145 108 3 L 108 18 C 108 19.656855 106.656853 21 105 21 L 3 21 C 1.343146 21 0 19.656855 0 18 L 0 3 C 0 1.343145 1.343146 0 3 0 Z"/>
        <text id="Browser-Notes" xml:space="preserve" x="5" y="15" font-family="Helvetica" font-size="14" fill="#ffffff">Browser Notes</text>
        <g id="g1">
            <path id="path1" fill="#ffffff" stroke="none" visibility="hidden" d="M 17.482492 7.898 C 17.258492 6.792 16.348492 5.364 14.010492 5.364 C 12.162492 5.364 10.636492 6.736 10.636492 8.402 C 10.636492 9.886 11.644492 10.88 13.156492 11.188 L 14.556492 11.482 C 15.410492 11.664001 15.886492 12.182 15.886492 12.826 C 15.886492 13.596001 15.270492 14.198 14.080492 14.198 C 12.652492 14.198 11.910492 13.246 11.812492 12.21 L 10.244492 12.658 C 10.398492 14.086 11.560492 15.709999 14.080492 15.709999 C 16.348492 15.709999 17.594492 14.24 17.594492 12.7 C 17.594492 11.3 16.656492 10.194 14.906492 9.844 L 13.478492 9.55 C 12.708492 9.382 12.316492 8.906 12.316492 8.276 C 12.316492 7.52 13.016492 6.848 14.024492 6.848 C 15.354492 6.848 15.872492 7.757999 15.970491 8.374 Z"/>
            <path id="path2" fill="#ffffff" stroke="none" visibility="hidden" d="M 27.015789 15.5 L 27.015789 13.931999 L 22.563789 13.931999 L 22.563789 11.3 L 26.595789 11.3 L 26.595789 9.774 L 22.563789 9.774 L 22.563789 7.142 L 27.015789 7.142 L 27.015789 5.573999 L 20.883791 5.573999 L 20.883791 15.5 Z"/>
            <path id="path3" fill="#ffffff" stroke="none" visibility="hidden" d="M 34.939087 15.709999 C 37.473087 15.709999 38.985088 14.1 39.43309 12.42 L 37.893089 11.916 C 37.557087 13.035999 36.605087 14.1 34.939087 14.1 C 33.245087 14.1 31.649088 12.868 31.649088 10.544 C 31.649088 8.136 33.28709 6.946 34.925087 6.946 C 36.591087 6.946 37.515087 7.912001 37.80909 9.116 L 39.39109 8.584 C 38.943089 6.848 37.445087 5.364 34.925087 5.364 C 32.349087 5.364 29.927088 7.309999 29.927088 10.544 C 29.927088 13.778 32.265087 15.709999 34.939087 15.709999 Z"/>
            <path id="path4" fill="#ffffff" stroke="none" visibility="hidden" d="M 46.222385 15.709999 C 48.308384 15.709999 49.932384 14.435999 49.932384 12.042 L 49.932384 5.573999 L 48.252384 5.573999 L 48.252384 11.944 C 48.252384 13.344 47.496387 14.114 46.222385 14.114 C 44.962387 14.114 44.192387 13.344 44.192387 11.944 L 44.192387 5.573999 L 42.526386 5.573999 L 42.526386 12.042 C 42.526386 14.435999 44.150387 15.709999 46.222385 15.709999 Z"/>
            <path id="path5" fill="#ffffff" stroke="none" visibility="hidden" d="M 58.751682 15.5 L 60.655685 15.5 L 58.415684 11.412 C 59.801685 11.076 60.655685 9.998 60.655685 8.584 C 60.655685 6.903999 59.465683 5.573999 57.547684 5.573999 L 53.739685 5.573999 L 53.739685 15.5 L 55.433685 15.5 L 55.433685 11.58 L 56.665684 11.58 Z M 55.433685 10.096 L 55.433685 7.058001 L 57.239685 7.058001 C 58.275684 7.058001 58.947685 7.66 58.947685 8.584 C 58.947685 9.494 58.275684 10.096 57.239685 10.096 Z"/>
            <path id="path6" fill="#ffffff" stroke="none" visibility="hidden" d="M 70.11898 15.5 L 70.11898 13.931999 L 65.666985 13.931999 L 65.666985 11.3 L 69.698982 11.3 L 69.698982 9.774 L 65.666985 9.774 L 65.666985 7.142 L 70.11898 7.142 L 70.11898 5.573999 L 63.98698 5.573999 L 63.98698 15.5 Z"/>
            <path id="path7" fill="#ffffff" stroke="none" visibility="hidden" d="M 73.674278 5.573999 L 73.674278 15.5 L 77.342278 15.5 C 79.190277 15.5 80.422279 14.351999 80.422279 12.756001 C 80.422279 11.58 79.694283 10.67 78.644279 10.39 C 79.498283 10.082 80.114281 9.298 80.114281 8.248 C 80.114281 6.694 78.994278 5.573999 77.090279 5.573999 Z M 75.340279 9.774 L 75.340279 7.002 L 76.82428 7.002 C 77.846283 7.002 78.43428 7.548 78.43428 8.388 C 78.43428 9.214 77.846283 9.774 76.86628 9.774 Z M 75.340279 14.072001 L 75.340279 11.188 L 77.104279 11.188 C 78.140282 11.188 78.714279 11.79 78.714279 12.644 C 78.714279 13.525999 78.056282 14.072001 77.048279 14.072001 Z"/>
            <path id="path8" fill="#ffffff" stroke="none" visibility="hidden" d="M 85.419579 15.5 L 85.419579 5.573999 L 83.711578 5.573999 L 83.711578 15.5 Z"/>
            <path id="path9" fill="#ffffff" stroke="none" visibility="hidden" d="M 97.668877 15.5 L 97.668877 5.573999 L 95.988876 5.573999 L 95.988876 12.616 L 91.480873 5.573999 L 89.338875 5.573999 L 89.338875 15.5 L 91.018875 15.5 L 91.018875 7.982 L 95.918877 15.5 Z"/>
        </g>
    </g>
</svg>
